<svg width="32" height="32" viewBox="0 0 32 32" fill="none" xmlns="http://www.w3.org/2000/svg">
<path fill-rule="evenodd" clip-rule="evenodd" d="M29.3615 11.1766C30.5764 10.7947 31.7564 10.9684 31.9647 11.6277C32.173 12.2521 31.3401 13.0851 30.0558 13.5015C29.8821 13.571 29.7432 13.6058 29.5698 13.6404C30.5761 15.757 31.3398 17.8737 31.3398 19.4699V26.0979C31.3398 26.5835 30.9232 27 30.4026 27H27.3483C26.8277 27 26.4111 26.6184 26.4111 26.0979V24.0612H5.41179V26.0979C5.41179 26.5835 4.9952 27 4.47461 27H1.42023C0.899646 27 0.483051 26.6184 0.483051 26.0979V19.4699C0.483051 17.8737 1.24681 15.6876 2.28797 13.571C2.18398 13.5364 2.04512 13.5015 1.90625 13.467C0.656792 13.0854 -0.176397 12.2524 0.0318997 11.5931C0.240197 10.9338 1.38567 10.7605 2.63513 11.1421C2.91286 11.2115 3.15604 11.3155 3.39889 11.4543L3.91947 10.5522C5.44667 7.9842 7.00841 5.97149 7.49444 5.72869C8.5356 5.27766 10.896 5.03455 15.4776 5H15.9287H16.3799C20.9614 5.03455 23.3564 5.27766 24.363 5.72869C24.8836 5.93694 26.4456 7.98452 27.9728 10.5522L28.5283 11.5237C28.7715 11.3849 29.0492 11.2806 29.3615 11.1766ZM8.13561 6.92472C7.71902 7.27179 6.2267 9.18022 4.69951 11.8522H15.5636H16.4313H27.2954C25.7682 9.18022 24.2756 7.23693 23.8593 6.92472C22.5056 6.3694 18.0283 6.29999 16.0151 6.29999C15.8875 6.30214 15.7504 6.30429 15.6053 6.30657L15.6051 6.30658C13.4209 6.3409 9.405 6.40402 8.13561 6.92472ZM22.3193 18.0548C23.6037 15.9378 26.3803 15.5907 27.7341 15.5562C28.1507 15.5216 28.4979 15.9033 28.4979 16.3198V17.0833C28.4979 17.5344 28.1507 17.916 27.7341 17.9854L22.7359 18.6447C22.3193 18.7141 22.111 18.4364 22.3193 18.0548ZM4.26338 15.5562C3.84679 15.5562 3.49963 15.9378 3.49963 16.3543V17.1178C3.49963 17.5689 3.84679 17.9508 4.26338 18.0199L9.26155 18.6792C9.67815 18.7486 9.88644 18.4364 9.67815 18.0893C8.39381 15.9032 5.61683 15.591 4.26338 15.5562ZM19.9979 20H11.9987V22H19.9979V20Z" fill="#535353"/>
</svg>
