<svg width="32" height="32" viewBox="0 0 32 32" fill="none" xmlns="http://www.w3.org/2000/svg">
<path fill-rule="evenodd" clip-rule="evenodd" d="M5 0H0V32H32V0H27V3C27 4.10457 26.1046 5 25 5C23.8954 5 23 4.10457 23 3V0H9V3C9 4.10457 8.10457 5 7 5C5.89543 5 5 4.10457 5 3V0ZM26 17C26 22.5228 21.5228 27 16 27C10.4772 27 6 22.5228 6 17C6 11.4772 10.4772 7 16 7C21.5228 7 26 11.4772 26 17ZM15.809 20.4865C15.9981 20.0454 16.0941 19.4891 16.0941 18.8329C16.0941 18.6109 16.0852 18.3977 16.0654 18.1756H18.8256V16.183H15.6853C15.6292 15.9841 15.5988 15.8855 15.5803 15.8254C15.5722 15.7988 15.5663 15.7798 15.5615 15.7629L15.561 15.7599L15.561 15.7598C15.5523 15.7108 15.5342 15.6084 15.4863 15.3637C15.4171 15.0339 15.3846 14.727 15.3846 14.3977C15.3846 13.7272 15.5324 13.2447 15.8438 12.9144C16.1317 12.5767 16.5683 12.406 17.1404 12.406C17.4697 12.406 17.769 12.4845 18.0291 12.6402C18.2808 12.7899 18.5306 13.0139 18.7715 13.3062L18.9192 13.4852L20.5 11.857L20.3716 11.696C19.966 11.1881 19.4796 10.7719 18.9206 10.4562C18.349 10.1537 17.6791 10 16.9278 10C16.318 10 15.7667 10.0966 15.2421 10.2947C14.702 10.4991 14.2597 10.7792 13.89 11.1515C13.5112 11.5326 13.2275 11.9766 13.0234 12.5079C12.8215 13.0324 12.7237 13.6136 12.7237 14.2845C12.7237 14.6704 12.7679 15.0442 12.8549 15.394C12.9203 15.658 12.9857 15.921 13.0587 16.1849L11.5358 16.3123V18.1932H13.5832C13.5931 18.2767 13.6035 18.3567 13.6133 18.4313C13.6289 18.5474 13.6289 18.6855 13.6289 18.8319V18.8319C13.6289 19.5462 13.4444 20.1922 13.0808 20.7524C12.7133 21.3193 12.2212 21.7682 11.6181 22.0878L11.5 22.1498V24H20.4398V21.4808H15.2186C15.4688 21.1515 15.6669 20.8173 15.809 20.4865Z" fill="#535353"/>
</svg>
