<svg width="30" height="30" viewBox="0 0 30 30" fill="none" xmlns="http://www.w3.org/2000/svg">
<path fill-rule="evenodd" clip-rule="evenodd" d="M2.60894 3.75071C4.43408 1.91769 6.3842 0.9375 9.56105 0.9375C12.9304 0.991428 14.7623 2.85896 14.9862 3.08716C14.9918 3.09294 14.9965 3.09766 15.0001 3.10128C15.0036 3.09771 15.0082 3.09306 15.0137 3.08739C15.2365 2.86018 17.0685 0.991446 20.439 0.9375C23.6158 0.9375 25.5659 1.91769 27.3911 3.75071C31.2401 7.61632 30.5686 14.5669 27.0858 18.0648L15.0018 29.0601L15.0011 29.0625L15.0001 29.0616L14.9991 29.0625V29.0608L2.91422 18.0648C-0.568619 14.5669 -1.24007 7.61632 2.60894 3.75071ZM17.6406 8.12498C17.5613 7.75953 17.2375 7.49912 16.8635 7.5C16.4896 7.50089 16.167 7.76283 16.0894 8.12865L14.1905 17.0799L12.9302 10.8632C12.8579 10.5064 12.552 10.2447 12.1883 10.2283C11.8246 10.212 11.4965 10.4453 11.3925 10.7942L10.6752 13.201H5.48077C5.04266 13.201 4.6875 13.5561 4.6875 13.9943C4.6875 14.4324 5.04266 14.7875 5.48077 14.7875H11.2665C11.5949 14.7875 11.8867 14.5856 12.0049 14.2841L13.3955 21.1432C13.4702 21.5117 13.7933 21.7771 14.1693 21.7788C14.5454 21.7805 14.8709 21.518 14.9489 21.1502L16.8743 12.0738L17.9572 17.062C18.0298 17.3966 18.3089 17.6468 18.6494 17.6826C18.9899 17.7184 19.315 17.5318 19.4556 17.2196L20.5516 14.7875H24.5192C24.9573 14.7875 25.3125 14.4324 25.3125 13.9943C25.3125 13.5561 24.9573 13.201 24.5192 13.201H20.039C19.727 13.201 19.444 13.3839 19.3158 13.6683L18.9974 14.3749L17.6406 8.12498Z" fill="#535353"/>
</svg>
