<svg width="33" height="32" viewBox="0 0 33 32" fill="none" xmlns="http://www.w3.org/2000/svg">
<path d="M23.5405 16H10.4597C11.4661 13.3686 14.0149 11.5 17.0001 11.5C19.9853 11.5 22.534 13.3686 23.5405 16Z" fill="#535353"/>
<path d="M21 6C21 8.20914 19.2091 10 17 10C14.7909 10 13 8.20914 13 6C13 3.79086 14.7909 2 17 2C19.2091 2 21 3.79086 21 6Z" fill="#535353"/>
<path d="M5.99997 29L6.00977 28.9927H6.99998C7.25464 27.8432 8.56772 27.0641 9.73188 27.0641C10.7139 27.0641 11.3147 27.2986 12.2822 27.6761C12.4616 27.7461 12.6537 27.8211 12.8632 27.9004L12.8643 27.9008L12.8667 27.9016C13.7188 28.2241 14.6628 28.4598 15.5145 28.6725C15.6377 28.7032 15.7589 28.7335 15.8776 28.7635C17.6629 29.2144 19.203 28.8753 19.75 28.6494C21.538 27.9273 24.0783 26.9429 25.7705 26.2871C26.6747 25.9367 27.3371 25.68 27.5129 25.6074C28.3149 25.2762 29.1285 24.4613 29.3228 24.1583C29.9772 23.138 30.9376 21.7689 31.6849 20.7038L31.6864 20.7017C32.1578 20.0298 32.5442 19.479 32.7152 19.2132C33.5429 17.9271 32.3969 17.0033 31.4419 17.7912C31.2306 17.9656 30.6188 18.4586 29.9301 19.0135L29.8813 19.0528L29.8703 19.0618C28.9522 19.8015 27.9153 20.6368 27.5129 20.9702C27.0156 21.3822 25.3813 22.1052 24.3421 22.4295L24.3268 22.4844V22.5056L24.2757 22.7092L24.2675 22.7307C23.9274 24.046 22.5759 24.8288 21.2985 24.5647L21.2871 24.5624L21.2702 24.5585L21.2567 24.5553L21.2095 24.5442C21.1709 24.535 21.118 24.5223 21.0632 24.5087C21.0058 24.4944 20.9444 24.4789 20.8979 24.467L20.8256 24.4486L13.7578 22.7461C13.7578 22.7461 13.2539 22.5703 13.4062 22.1016C13.4711 21.9369 13.5834 21.851 13.7266 21.8171C13.8563 21.7761 14.041 21.7836 14.1749 21.8171L14.2646 21.8405C14.2898 21.8465 14.3059 21.8511 14.31 21.8523L14.311 21.8526L21.0667 23.478C21.0667 23.478 21.1947 23.5109 21.3048 23.5383C21.4049 23.5632 21.501 23.5854 21.501 23.5854C21.8898 23.6658 22.2901 23.5837 22.618 23.3837C22.8512 23.2414 23.0478 23.0396 23.1777 22.7941C23.2305 22.6943 23.2722 22.5873 23.301 22.4741C23.3124 22.4291 23.32 22.4092 23.32 22.4092L23.3268 22.382V22.348L23.34 22.3005C23.34 22.3005 23.3375 22.2749 23.34 22.248C23.3625 22.0068 23.3078 21.7594 23.1978 21.5312C22.9922 21.1052 22.5933 20.7461 22.1428 20.6196L15.189 18.4252C14.115 18.1445 12.9513 18.1945 12.0967 18.4252C10.6016 18.829 8.96804 19.6298 7.61288 20.3544C7.17985 20.5859 6.69334 20.8431 6.19161 21.1083C5.96931 21.2259 5.74402 21.345 5.51907 21.4641L5.01981 20.5414L0.999983 22.0044C0.941775 21.8884 2.5 25.5022 5.99997 29Z" fill="#535353"/>
</svg>
