<svg width="88" height="88" viewBox="0 0 88 88" fill="none" xmlns="http://www.w3.org/2000/svg">
<path fill-rule="evenodd" clip-rule="evenodd" d="M50 51.0064H43.9853V45L39.9951 47.3629L36.0073 45V51.0064H30L32.3647 54.9927L30.0073 58.9863H36.0073V64.978L40.0024 62.6298L43.9853 65V58.9863H50L47.6377 54.9951L50 51.0064ZM46.612 57.0544H42.0539V61.5989L40.0073 60.3746L37.9388 61.5989V57.0544H33.3929L34.6169 54.9927L33.3929 52.9358H37.9388V48.3888L39.9951 49.6131L42.0539 48.3888V52.9358H46.612L45.388 54.9951L46.612 57.0544Z" fill="#DC0028"/>
<path fill-rule="evenodd" clip-rule="evenodd" d="M24.1533 25.5C24.1533 17.0777 30.981 10.25 39.4033 10.25C43.7371 10.25 47.6486 12.0577 50.425 14.9602C51.5992 16.1655 52.584 17.5953 53.3084 19.2223L54.4254 21.7311L57.2843 20.4583C59.0747 19.6971 61.0346 19.8284 62.6925 20.6248C64.3261 21.4096 65.5813 22.7861 66.2825 24.3967L79.1434 53.2828C79.8711 54.8816 80.0542 56.7354 79.5443 58.4746C79.0269 60.2396 77.8129 61.7839 76.0492 62.6051L76.0224 62.6176L65.5002 67.3024V70.9683C65.5155 72.7963 64.9047 74.6332 63.688 76.0659C62.4538 77.5191 60.6571 78.4656 58.6494 78.4995L58.6198 78.5H21.3773L21.3463 78.4995C19.3396 78.4639 17.5444 77.5169 16.3113 76.064C15.0957 74.6315 14.4854 72.7953 14.5008 70.968V37.032C14.4854 35.2047 15.0957 33.3685 16.3113 31.936C17.5444 30.4831 19.3396 29.5361 21.3463 29.5006L21.3773 29.5H24.1533V25.5ZM51.1533 40V33H27.6533V40C27.6533 40.9665 26.8698 41.75 25.9033 41.75C24.9368 41.75 24.1533 40.9665 24.1533 40V33H21.4083C20.492 33.0162 19.6187 33.448 18.9799 34.2007C18.3411 34.9534 17.989 35.9656 18.0008 37.0152V70.9848C17.989 72.0344 18.3411 73.0466 18.9799 73.7993C19.6187 74.552 20.492 74.9838 21.4083 75H58.5902C59.507 74.9845 60.3809 74.553 61.0202 73.8003C61.6595 73.0475 62.012 72.0349 62.0002 70.9848V37.0152C62.012 35.9651 61.6595 34.9525 61.0202 34.1997C60.3809 33.447 59.507 33.0155 58.5902 33H54.6533V40C54.6533 40.9665 53.8698 41.75 52.9033 41.75C51.9368 41.75 51.1533 40.9665 51.1533 40ZM51.1533 29.5V27.0187L45.5802 29.5H51.1533ZM50.9441 23.281C50.5174 21.0487 49.4591 19.0405 47.9623 17.4497C44.8029 14.1684 39.8095 13.0421 35.4078 15.0019C29.8573 17.4731 27.324 23.9271 29.675 29.5H36.9756L50.9441 23.281ZM57.8843 29.5L55.8488 24.9281L58.6537 23.6793C59.4399 23.3451 60.3474 23.3811 61.1769 23.7796C62.0064 24.1782 62.6902 24.9065 63.0782 25.8049L75.9528 54.7218C76.3608 55.6113 76.4446 56.6068 76.1857 57.4899C75.9268 58.373 75.3464 59.0716 74.5719 59.4322L65.5002 63.4711V37.0318C65.5155 35.2037 64.9047 33.3668 63.688 31.9341C62.4538 30.4809 60.6571 29.5339 58.6494 29.5H57.8843Z" fill="#DC0028"/>
</svg>
