<svg width="89" height="88" viewBox="0 0 89 88" fill="none" xmlns="http://www.w3.org/2000/svg">
<path fill-rule="evenodd" clip-rule="evenodd" d="M26.5 24.5048H21.989V20L18.9963 21.7722L16.0055 20V24.5048H11.5L13.2736 27.4945L11.5055 30.4897H16.0055V34.9835L19.0018 33.2223L21.989 35V30.4897H26.5L24.7283 27.4963L26.5 24.5048ZM23.959 29.0408H20.5404V32.4492L19.0055 31.531L17.4541 32.4492V29.0408H14.0447L14.9627 27.4945L14.0447 25.9519H17.4541V22.5416L18.9963 23.4598L20.5404 22.5416V25.9519H23.959L23.041 27.4963L23.959 29.0408Z" fill="#DC0028"/>
<path d="M67.5 72C66.9477 72 66.5 72.4477 66.5 73C66.5 73.5523 66.9477 74 67.5 74H78.5C79.0523 74 79.5 73.5523 79.5 73C79.5 72.4477 79.0523 72 78.5 72H67.5Z" fill="#DC0028"/>
<path fill-rule="evenodd" clip-rule="evenodd" d="M29.8759 64.2049H9.18515C4.06172 64.2049 1.5 61.7089 1.5 56.5197V18.6851C1.5 13.4632 4.06172 11 9.18515 11H70.4365C75.5271 11 78.1216 13.4632 78.1216 18.6851V34H81.5C84.2614 34 86.5 36.2386 86.5 39V74C86.5 76.7614 84.2614 79 81.5 79H64.5C61.7386 79 59.5 76.7614 59.5 74V64.2049H49.7457L50.7309 71.3317H54.1794C55.3289 71.3317 56.2485 72.2185 56.2485 73.3679C56.2485 74.5174 55.3289 75.4042 54.1794 75.4042H25.4094C24.2927 75.4042 23.3731 74.5174 23.3731 73.3679C23.3731 72.2185 24.2927 71.3317 25.4094 71.3317H28.8907L29.8759 64.2049ZM74.0491 18.7508V34H64.5C61.7386 34 59.5 36.2386 59.5 39V50.5096H7.11607C6.06511 50.5096 5.57247 50.0498 5.57247 48.966V18.7508C5.57247 16.1563 6.7548 15.0396 9.28368 15.0396H70.3379C72.8668 15.0396 74.0491 16.1563 74.0491 18.7508ZM37.0356 58.129C37.0356 59.6726 38.2836 60.8878 39.7944 60.8878C41.2723 60.8878 42.586 59.6726 42.586 58.129C42.586 56.6511 41.2723 55.3702 39.7944 55.3702C38.2836 55.3702 37.0356 56.6511 37.0356 58.129ZM64.5 37C63.3954 37 62.5 37.8954 62.5 39V74C62.5 75.1046 63.3954 76 64.5 76H81.5C82.6046 76 83.5 75.1046 83.5 74V39C83.5 37.8954 82.6046 37 81.5 37H64.5Z" fill="#DC0028"/>
</svg>
