<svg width="88" height="88" viewBox="0 0 88 88" fill="none" xmlns="http://www.w3.org/2000/svg">
<path d="M38.8561 29.1429C38.8561 30.5068 39.3979 31.8149 40.3624 32.7794C41.3269 33.7439 42.635 34.2857 43.9989 34.2857C45.3629 34.2857 46.671 33.7439 47.6355 32.7794C48.6 31.8149 49.1418 30.5068 49.1418 29.1429C49.1418 27.7789 48.6 26.4708 47.6355 25.5063C46.671 24.5418 45.3629 24 43.9989 24C42.635 24 41.3269 24.5418 40.3624 25.5063C39.3979 26.4708 38.8561 27.7789 38.8561 29.1429V29.1429Z" stroke="#DC0028" stroke-width="2.5" stroke-linecap="round" stroke-linejoin="round"/>
<path d="M53 46.7571C53 44.3701 52.0518 42.0809 50.364 40.3931C48.6761 38.7053 46.3869 37.7571 44 37.7571C41.6131 37.7571 39.3239 38.7053 37.636 40.3931C35.9482 42.0809 35 44.3701 35 46.7571V50.6142H38.8571L40.1429 63.4714H47.8571L49.1429 50.6142H53V46.7571Z" stroke="#DC0028" stroke-width="2.5" stroke-linecap="round" stroke-linejoin="round"/>
<path d="M84.0767 35.3483C82.3656 27.4219 78.3424 20.1808 72.516 14.5409C66.6895 8.90095 59.3215 5.1154 51.3436 3.66295C43.3657 2.21051 35.1362 3.1564 27.6959 6.38102C20.2556 9.60564 13.9386 14.9641 9.5437 21.7789C5.14881 28.5937 2.87343 36.5587 3.0053 44.6667C3.13718 52.7746 5.67038 60.6614 10.2846 67.3297C14.8988 73.9979 21.3867 79.1482 28.9279 82.1291C36.4692 85.1101 44.725 85.7878 52.6515 84.0767" stroke="#DC0028" stroke-width="3" stroke-linecap="round"/>
<path d="M18.5824 64.1665C22.5677 69.3353 27.9962 73.2062 34.1815 75.2897C40.3668 77.3733 47.031 77.5759 53.3315 75.8719C59.6319 74.168 65.2856 70.634 69.5775 65.7169C73.8695 60.7998 76.6069 54.7204 77.4438 48.2474C78.2806 41.7745 77.1792 35.1988 74.2788 29.3519C71.3785 23.5049 66.8094 18.6493 61.1494 15.3991C55.4895 12.1489 48.9928 10.6501 42.481 11.0922C35.9693 11.5342 29.7348 13.8973 24.566 17.8826" stroke="#DC0028" stroke-width="3" stroke-linecap="round"/>
</svg>
